<?xml version="1.0" encoding="UTF-8" standalone="no"?>
<!-- Created with Inkscape (http://www.inkscape.org/) -->

<svg
   xmlns:dc="http://purl.org/dc/elements/1.1/"
   xmlns:cc="http://creativecommons.org/ns#"
   xmlns:rdf="http://www.w3.org/1999/02/22-rdf-syntax-ns#"
   xmlns:svg="http://www.w3.org/2000/svg"
   xmlns="http://www.w3.org/2000/svg"
   xmlns:sodipodi="http://sodipodi.sourceforge.net/DTD/sodipodi-0.dtd"
   xmlns:inkscape="http://www.inkscape.org/namespaces/inkscape"
   width="1000"
   height="333.5"
   id="svg3815"
   version="1.1"
   inkscape:version="0.48.4 r9939"
   sodipodi:docname="logo-anim.svg">
  <defs
     id="defs3817">
    <clipPath
       id="clipPath4389-0">
      <path
         inkscape:connector-curvature="0"
         d="m 0,841.89 595.28,0 V 0 H 0 v 841.89 z"
         id="path4391-2" />
    </clipPath>
  </defs>
  <sodipodi:namedview
     id="base"
     pagecolor="#ffffff"
     bordercolor="#666666"
     borderopacity="1.0"
     inkscape:pageopacity="0.0"
     inkscape:pageshadow="2"
     inkscape:zoom="0.49497475"
     inkscape:cx="47.120953"
     inkscape:cy="132.90106"
     inkscape:document-units="px"
     inkscape:current-layer="logo"
     showgrid="false"
     showguides="true"
     inkscape:guide-bbox="true"
     inkscape:window-width="1366"
     inkscape:window-height="702"
     inkscape:window-x="0"
     inkscape:window-y="27"
     inkscape:window-maximized="1">
    <sodipodi:guide
       orientation="1,0"
       position="500,742.85714"
       id="guide3895" />
    <sodipodi:guide
       orientation="0,1"
       position="761.42857,11.428571"
       id="guide3001" />
    <sodipodi:guide
       orientation="0,1"
       position="701.42857,332.85714"
       id="guide3003" />
  </sodipodi:namedview>
  <metadata
     id="metadata3820">
    <rdf:RDF>
      <cc:Work
         rdf:about="">
        <dc:format>image/svg+xml</dc:format>
        <dc:type
           rdf:resource="http://purl.org/dc/dcmitype/StillImage" />
        <dc:title />
      </cc:Work>
    </rdf:RDF>
  </metadata>
  <g
     inkscape:label="Layer 1"
     inkscape:groupmode="layer"
     id="layer1"
     transform="translate(0,-718.86218)">
    <g
       transform="matrix(1.25,0,0,-1.25,64.73378,1480.922)"
       id="lineaIzq">
      <g
         id="g3991">
        <g
           id="icon">
          <rect
             style="fill:none;stroke:none"
             id="fondoRect"
             width="1002.8571"
             height="400"
             x="0"
             y="-5.6843419e-14"
             transform="matrix(0.8,0,0,-0.8,-51.787024,662.84786)" />
          <path
             inkscape:connector-curvature="0"
             d="m -249.15755,499.9335 218.860002,0"
             id="lineLeft"
             style="fill:#e56f0e;stroke:#e56f0e;stroke-width:14.47999953999999967;stroke-linecap:butt;stroke-linejoin:miter;stroke-miterlimit:4;stroke-dasharray:none;fill-opacity:1;stroke-opacity:1" />
        </g>
        <g
           id="alephsa"
           transform="matrix(0.5825228,0,0,0.5825228,-1486.9467,-102.02391)"
           inkscape:export-xdpi="300.06744"
           inkscape:export-ydpi="300.06744"
           style="opacity:0">
          <path
             d="m 3039.7028,807.81384 c 5.1311,0 9.5601,1.8625 13.2909,5.5894 3.7288,3.723 5.5894,8.191 5.5894,13.3981 0,5.0609 -1.8898,9.4743 -5.6401,13.2324 -3.7698,3.764 -8.1793,5.6421 -13.2402,5.6421 -5.2091,0 -9.6595,-1.8625 -13.3494,-5.5855 -3.6801,-3.7269 -5.5309,-8.152 -5.5309,-13.289 0,-5.2812 1.8313,-9.7648 5.4802,-13.4527 3.6489,-3.6879 8.1208,-5.5348 13.4001,-5.5348 z m 25.8212,-6.3987 -6.7303,0 0,8.5693 c -5.1311,-5.7142 -11.5006,-8.5693 -19.0909,-8.5693 -7.0891,0 -13.1095,2.4768 -18.0709,7.4284 -4.9497,4.9536 -7.4285,10.9428 -7.4285,17.9578 0,6.8707 2.5002,12.7839 7.4889,17.7375 4.9907,4.9497 10.9896,7.4343 18.0105,7.4343 6.8707,0 12.8696,-2.4963 18.0105,-7.485 5.1291,-4.9966 7.7405,-10.8902 7.8107,-17.6868 l 0,-25.3862"
             style="fill:#e56f0e;fill-opacity:1;fill-rule:nonzero;stroke:none"
             id="path3178"
             inkscape:connector-curvature="0" />
          <path
             d="m 3068.8335,801.41514 6.6194,0 0,74.3901 -6.6194,0 0,-74.3901 z"
             style="fill:#e56f0e;fill-opacity:1;fill-rule:nonzero;stroke:none"
             id="path3180"
             inkscape:connector-curvature="0" />
          <path
             d="m 3116.4135,841.23124 c -3.5514,3.0384 -7.6293,4.5577 -12.2611,4.5577 -4.7001,0 -8.8288,-1.5193 -12.3704,-4.5577 -3.5494,-3.0405 -5.7181,-6.7966 -6.5079,-11.2861 l 37.5382,0 c -0.7197,4.4895 -2.8591,8.2456 -6.3988,11.2861 z m -30.2209,-32.4364 c -4.9497,4.9165 -7.4304,10.8823 -7.4304,17.8973 0,7.015 2.4807,12.9789 7.4304,17.9013 4.9497,4.9185 10.9409,7.3797 17.9598,7.3797 7.0111,0 13.0003,-2.4612 17.95,-7.3797 4.9614,-4.9224 7.4304,-10.8863 7.4304,-17.9013 l 0,-3.1438 -44.2587,0 c 0.7898,-4.5557 2.9585,-8.3197 6.5079,-11.286 3.5416,-2.9644 7.6703,-4.4485 12.3704,-4.4485 l 0.3198,0 c 3.9102,0 10.3012,0.031 14.6015,0 l -0.09,-6.3987 c -6.5314,0.039 -9.3007,0 -14.5118,0 l -0.3198,0 c -7.0189,0 -13.0101,2.4573 -17.9598,7.3797"
             style="fill:#e56f0e;fill-opacity:1;fill-rule:nonzero;stroke:none"
             id="path3182"
             inkscape:connector-curvature="0" />
          <path
             d="m 3139.4634,826.80134 0,-0.1092 c 0.07,-5.2812 1.9288,-9.7473 5.5894,-13.3981 3.6509,-3.6528 8.0799,-5.4802 13.2909,-5.4802 5.1291,0 9.5601,1.8625 13.2889,5.5894 3.7211,3.723 5.5914,8.191 5.5914,13.3981 0,5.0609 -1.8918,9.4743 -5.6518,13.2324 -3.7581,3.764 -8.1696,5.6421 -13.2285,5.6421 -5.211,0 -9.6595,-1.8625 -13.3513,-5.5855 -3.6802,-3.7269 -5.529,-8.152 -5.529,-13.289 z m -6.621,-40.4752 0,40.4752 c 0,6.8707 2.4904,12.7839 7.4908,17.7375 4.9907,4.9497 10.9896,7.4343 18.0105,7.4343 6.8687,0 12.8189,-2.4963 17.8388,-7.485 5.0297,-4.9966 7.5494,-10.8902 7.5494,-17.6868 0,-7.015 -2.4982,-13.0042 -7.4889,-17.9578 -4.9907,-4.9516 -10.9604,-7.4284 -17.8993,-7.4284 -7.5201,0 -13.7414,2.7459 -18.6599,8.2456 l 0,-23.3346 -6.8414,0"
             style="fill:#e56f0e;fill-opacity:1;fill-rule:nonzero;stroke:none"
             id="path3184"
             inkscape:connector-curvature="0" />
          <path
             d="m 3193.6528,875.80504 0,-30.5641 c 4.4914,4.4855 9.759,6.7322 15.8398,6.7322 6.1511,0 11.3914,-2.1726 15.7404,-6.5119 4.3413,-4.3373 6.5002,-9.5464 6.5002,-15.6214 l 0,-28.4247 -6.2895,0 0,28.4247 c 0,4.2671 -1.5505,7.9726 -4.6611,11.1203 -3.1204,3.1477 -6.8805,4.7157 -11.29,4.7157 -4.1891,0 -7.8789,-1.5895 -11.0598,-4.7703 -3.1906,-3.1867 -4.78,-6.8746 -4.78,-11.0657 l 0,-28.4247 -6.6191,0 0,74.3899 6.6191,0"
             style="fill:#e56f0e;fill-opacity:1;fill-rule:nonzero;stroke:none"
             id="path3186"
             inkscape:connector-curvature="0" />
          <path
             d="m 3249.3731,830.05824 6.0691,0 c 4.6319,0 8.1715,-1.3768 10.6308,-4.1267 2.4593,-2.7459 3.6899,-6.1842 3.6899,-10.305 0,-3.9103 -1.3906,-7.251 -4.1794,-10.036 -2.781,-2.781 -6.0906,-4.1754 -9.9209,-4.1754 l -18.9895,0 0,6.3987 18.9895,0 c 2.0907,0 3.9005,0.7606 5.4217,2.2779 1.5192,1.5173 2.2779,3.3661 2.2779,5.5348 0,2.1686 -0.6982,4.0311 -2.118,5.5854 -1.41,1.5583 -3.3408,2.3364 -5.802,2.3364 l -6.0691,0 c -4.4212,0 -7.9102,1.3535 -10.4806,4.0663 -2.5704,2.7089 -3.8498,6.0925 -3.8498,10.1432 0,3.9063 1.4003,7.249 4.1813,10.0359 2.7791,2.785 6.0887,4.1794 9.9287,4.1794 l 18.6599,0 0,-6.4027 -18.6599,0 c -2.1004,0 -3.9102,-0.7586 -5.4294,-2.2778 -1.5193,-1.5232 -2.2799,-3.3622 -2.2799,-5.5348 0,-2.1726 0.7197,-3.9961 2.1687,-5.4763 1.451,-1.4841 3.37,-2.2233 5.761,-2.2233"
             style="fill:#e56f0e;fill-opacity:1;fill-rule:nonzero;stroke:none"
             id="path3188"
             inkscape:connector-curvature="0" />
          <path
             d="m 3298.5738,807.81384 c 5.1291,0 9.56,1.8625 13.2889,5.5894 3.721,3.723 5.5894,8.191 5.5894,13.3981 0,5.0609 -1.8801,9.4743 -5.6382,13.2324 -3.7717,3.764 -8.1812,5.6421 -13.2401,5.6421 -5.2111,0 -9.6615,-1.8625 -13.3514,-5.5855 -3.6898,-3.7269 -5.5289,-8.152 -5.5289,-13.289 0,-5.2812 1.8196,-9.7648 5.4802,-13.4527 3.6489,-3.6879 8.1188,-5.5348 13.4001,-5.5348 z m 25.8192,-6.3987 -6.7303,0 0,8.5693 c -5.1291,-5.7142 -11.5006,-8.5693 -19.0889,-8.5693 -7.0911,0 -13.1115,2.4768 -18.071,7.4284 -4.9497,4.9536 -7.4304,10.9428 -7.4304,17.9578 0,6.8707 2.5002,12.7839 7.4909,17.7375 4.9887,4.9497 10.9896,7.4343 18.0105,7.4343 6.8687,0 12.8696,-2.4963 18.0085,-7.485 5.131,-4.9966 7.7405,-10.8902 7.8107,-17.6868 l 0,-25.3862"
             style="fill:#e56f0e;fill-opacity:1;fill-rule:nonzero;stroke:none"
             id="path3190"
             inkscape:connector-curvature="0" />
        </g>
        <g
           id="logo"
           transform="matrix(0.34634706,0,0,0.34634706,30.120684,195.77506)"
           inkscape:export-filename="/home/libardo/g3305.png"
           inkscape:export-xdpi="300.06744"
           inkscape:export-ydpi="300.06744"
           style="opacity:0">
          <path
             d="m 721.58295,854.63807 46.14658,-26.64223 0,-92.25415 46.14658,-26.64223 92.34581,-53.31956 0,230.7485 -138.43779,79.92863 0,46.17777 184.58632,-106.60205 0,-276.89313 138.49045,79.95984 0,276.89508 -184.57852,106.60206 46.15243,26.6461 184.57659,-106.6079 0,-218.57898 46.1505,14.49028 0,230.7251 -230.78755,133.2462 -138.44559,-79.9208 230.73094,-133.27939 0,-230.72705 -46.14462,-26.65003 0.0566,230.76995 -230.78751,133.24432 -46.19923,-26.6832 -0.002,-92.28536 138.49434,-79.95984 0,-138.43584 -46.20118,26.66953 -0.0839,92.28731 -92.2093,53.2357 0,-46.14463"
             style="fill:#e56f0e;fill-opacity:1;fill-rule:nonzero;stroke:none"
             id="path3168"
             inkscape:connector-curvature="0" />
          <path
             d="m 1181.1609,790.02662 c 0,10.76923 -8.78,19.55116 -19.559,19.55116 -10.8101,0 -19.5609,-8.78193 -19.5609,-19.55116 0,-10.82383 8.7508,-19.57456 19.5609,-19.57456 10.779,0 19.559,8.75073 19.559,19.57456 z"
             style="fill:none;stroke:#e56f0e;stroke-width:18.57531356999999872;stroke-linecap:butt;stroke-linejoin:miter;stroke-miterlimit:10;stroke-opacity:1;stroke-dasharray:none"
             id="path3172"
             inkscape:connector-curvature="0" />
        </g>
      </g>
    </g>
  </g>
</svg>
